<svg width="128" height="128" viewBox="0 0 128 128" xmlns="http://www.w3.org/2000/svg">
  <!-- Earth Globe Background -->
  <circle cx="64" cy="64" r="58" fill="#4A90E2"/>
  
  <!-- Globe continents - more detailed and visible -->
  <g fill="#2E7D32" opacity="0.85">
    <!-- North America -->
    <path d="M 30 35 Q 28 30, 32 28 Q 38 26, 42 28 Q 48 30, 50 35 Q 52 42, 48 48 Q 45 52, 40 50 Q 35 48, 32 45 Q 28 40, 30 35 Z"/>
    <ellipse cx="38" cy="48" rx="6" ry="8" transform="rotate(-15 38 48)"/>
    
    <!-- South America -->
    <path d="M 42 65 Q 40 60, 43 58 Q 47 56, 50 60 Q 52 65, 50 72 Q 48 78, 45 80 Q 42 82, 40 78 Q 38 72, 40 68 Q 39 65, 42 65 Z"/>
    
    <!-- Europe -->
    <path d="M 68 32 Q 70 28, 74 30 Q 78 32, 78 36 Q 77 40, 73 42 Q 70 43, 68 40 Q 66 36, 68 32 Z"/>
    
    <!-- Africa -->
    <path d="M 70 45 Q 68 42, 72 40 Q 78 38, 82 42 Q 86 48, 84 56 Q 82 64, 78 68 Q 74 70, 72 66 Q 70 60, 72 54 Q 71 48, 70 45 Z"/>
    
    <!-- Asia (larger) -->
    <path d="M 85 28 Q 90 24, 96 26 Q 102 30, 104 36 Q 105 42, 102 48 Q 98 54, 92 56 Q 88 58, 85 54 Q 82 48, 84 42 Q 83 35, 85 28 Z"/>
    <ellipse cx="94" cy="44" rx="8" ry="10" transform="rotate(20 94 44)"/>
    
    <!-- Australia -->
    <ellipse cx="95" cy="75" rx="9" ry="8" transform="rotate(25 95 75)"/>
    
    <!-- Greenland -->
    <ellipse cx="48" cy="20" rx="8" ry="6" transform="rotate(-20 48 20)"/>
  </g>
  
  <!-- Globe grid lines -->
  <g stroke="#2C5F8D" stroke-width="1.5" fill="none" opacity="0.2">
    <!-- Latitude lines -->
    <ellipse cx="64" cy="64" rx="58" ry="20"/>
    <ellipse cx="64" cy="64" rx="58" ry="35"/>
    <line x1="6" y1="64" x2="122" y2="64"/>
    
    <!-- Longitude lines -->
    <ellipse cx="64" cy="64" rx="20" ry="58"/>
    <ellipse cx="64" cy="64" rx="35" ry="58"/>
  </g>
  
  <!-- Globe outer ring/shine -->
  <circle cx="64" cy="64" r="58" fill="none" stroke="#6BB6FF" stroke-width="2" opacity="0.4"/>
  <path d="M 25 30 Q 35 25, 50 28" stroke="#FFFFFF" stroke-width="2.5" fill="none" opacity="0.6" stroke-linecap="round"/>
  
  <!-- Sticky Note Shadow -->
  <rect x="37" y="47" width="54" height="54" rx="4" fill="#000000" opacity="0.15"/>
  
  <!-- Sticky Note - matching #fffbf0 -->
  <rect x="34" y="44" width="54" height="54" rx="4" fill="#FFFBF0" stroke="#E6D700" stroke-width="2"/>
  
  <!-- Sticky note fold (top right corner) -->
  <path d="M 80 44 L 80 54 L 88 44 Z" fill="#E6D700"/>
  <path d="M 80 44 L 80 54 L 88 44 Z" fill="#D4C89C" opacity="0.4"/>
  
  <!-- Note lines -->
  <line x1="42" y1="58" x2="80" y2="58" stroke="#D4C89C" stroke-width="1.5" opacity="0.5" stroke-linecap="round"/>
  <line x1="42" y1="68" x2="75" y2="68" stroke="#D4C89C" stroke-width="1.5" opacity="0.5" stroke-linecap="round"/>
  <line x1="42" y1="78" x2="78" y2="78" stroke="#D4C89C" stroke-width="1.5" opacity="0.5" stroke-linecap="round"/>
  
  <!-- Modern Pencil - Bottom Right (CORRECTED TIP) -->
  <g transform="translate(70, 75) rotate(-35)">
    <!-- Pencil shadow -->
    <rect x="1" y="1" width="8" height="24" rx="1" fill="#000000" opacity="0.2"/>
    
    <!-- Pencil body (main part) -->
    <rect x="0" y="6" width="8" height="18" rx="1" fill="#FF6B6B"/>
    
    <!-- Pencil wood/graphite tip (POINTED DOWN NOW) -->
    <polygon points="0,24 4,28 8,24" fill="#D4A574"/>
    
    <!-- Graphite tip (black point) -->
    <polygon points="2,26 4,28 6,26" fill="#2C2C2C"/>
    
    <!-- Pencil eraser (top) -->
    <rect x="0" y="0" width="8" height="6" rx="1" fill="#FF9EAA"/>
    
    <!-- Pencil metal band (between eraser and body) -->
    <rect x="0" y="5" width="8" height="2" fill="#BDBDBD"/>
    
    <!-- Pencil highlight (shine) -->
    <rect x="1.5" y="8" width="1.5" height="10" rx="0.5" fill="#FFFFFF" opacity="0.4"/>
  </g>
  
  <!-- Subtle shadow under everything -->
  <circle cx="64" cy="64" r="58" fill="none" stroke="#1A4D7A" stroke-width="1" opacity="0.3"/>
</svg>